<?xml version="1.0" standalone="no"?>
<!DOCTYPE svg PUBLIC "-//W3C//DTD SVG 20010904//EN"
 "http://www.w3.org/TR/2001/REC-SVG-20010904/DTD/svg10.dtd">
<svg version="1.0" xmlns="http://www.w3.org/2000/svg"
 width="85.000000pt" height="64.000000pt" viewBox="0 0 85.000000 64.000000"
 preserveAspectRatio="xMidYMid meet">

<g transform="translate(0.000000,64.000000) scale(0.100000,-0.100000)"
fill="#000000" stroke="none">
<path d="M0 320 l0 -320 425 0 425 0 0 320 0 320 -425 0 -425 0 0 -320z m584
270 c-6 -6 -21 -6 -39 -1 -30 9 -30 9 10 10 25 1 36 -2 29 -9z m-64 -55 c-7
-8 -17 -15 -23 -15 -6 0 -2 7 9 15 25 19 30 19 14 0z m160 -25 c14 -14 20 -33
20 -66 0 -40 -5 -51 -38 -84 -28 -29 -49 -40 -84 -45 -49 -7 -88 6 -88 30 0 7
-10 15 -22 17 -14 2 -26 14 -32 31 -18 50 51 112 80 73 10 -15 12 -13 18 11
10 37 34 52 84 53 29 0 48 -6 62 -20z m-354 -40 c-1 -39 -4 -50 -16 -48 -8 2
-16 13 -18 26 -2 14 -10 22 -24 22 -14 0 -18 -5 -14 -16 6 -16 -9 -44 -24 -44
-5 0 -6 9 -3 20 6 22 -8 26 -37 10 -14 -7 -19 -5 -23 10 -4 15 0 19 16 18 12
0 47 11 77 25 30 14 58 26 61 26 3 1 6 -22 5 -49z m-33 -154 c39 -1 33 -23
-10 -36 -21 -6 -44 -14 -52 -16 -11 -4 -10 -7 4 -18 12 -8 14 -15 7 -20 -6 -3
-13 -2 -17 4 -3 5 -12 10 -18 10 -7 0 -4 -5 6 -11 9 -5 17 -19 17 -31 0 -17 4
-19 23 -13 47 15 90 18 82 6 -4 -8 -1 -11 11 -9 12 2 20 -5 24 -22 4 -17 14
-26 30 -28 14 -2 29 -8 34 -13 16 -14 31 -11 72 17 35 24 37 24 19 4 -23 -26
-84 -66 -122 -81 -22 -8 -24 -7 -14 4 9 12 1 15 -52 19 -35 3 -72 10 -83 15
-10 6 -37 16 -59 23 -47 15 -85 38 -85 52 0 5 12 0 26 -11 18 -14 40 -21 68
-20 l41 1 -37 10 c-21 6 -38 14 -38 20 0 5 4 7 9 4 12 -8 47 21 37 31 -5 4
-11 3 -13 -3 -4 -13 -50 -7 -59 8 -10 15 3 20 24 9 17 -9 19 -7 15 13 -3 13 0
27 6 30 14 9 14 26 1 26 -5 0 -10 -6 -10 -14 0 -8 -7 -16 -15 -20 -9 -3 -15 0
-15 8 0 28 12 44 28 39 9 -2 26 3 37 11 11 9 27 13 35 9 8 -4 27 -7 43 -7z"/>
</g>
</svg>
